<?xml version="1.0" encoding="utf-8"?>
<!-- Generator: Adobe Illustrator 20.0.0, SVG Export Plug-In . SVG Version: 6.00 Build 0)  -->
<svg version="1.1" id="Layer_1" xmlns="http://www.w3.org/2000/svg" xmlns:xlink="http://www.w3.org/1999/xlink" x="0px" y="0px"
	 viewBox="0 0 441 441" style="enable-background:new 0 0 441 441;" xml:space="preserve">
<style type="text/css">
	.st0{fill:#21409A;}
	.st1{fill:#FFFFFF;}
</style>
<circle class="st0" cx="220.5" cy="220.5" r="216"/>
<g>
	<path class="st1" d="M172.3,191.9h11l22.2,33.7v-33.7h11.7v57.9H207l-22.9-35v35h-11.7V191.9z"/>
	<path class="st1" d="M228.8,191.9h37.3v11h-25.3v13H263v11h-22.2v22.9h-12V191.9z"/>
</g>
<g>
	<path class="st1" d="M162.8,175.6h-1.5c-3.1,0-5.2,0.6-6.1,1.8c-0.9,1.2-1.4,3.8-1.4,7.6v21c0,3.7-0.5,6.7-1.5,9
		c-1,2-2.9,3.9-5.8,5.6c4.9,2.9,7.3,6.8,7.3,11.6v23.7c0,4,0.5,6.6,1.4,7.8c1,1.3,3,1.9,6.1,1.9l1.5-0.1v10.6h-3l-3.7,0.2
		c-5.1,0-8.8-1.4-11-4.1c-2.2-2.8-3.3-7.3-3.3-13.6v-25.7c0-1.8-0.6-3.4-1.8-4.8c-1.2-1.4-2.9-2.4-5-2.8v-10.1
		c2.4-0.6,4.2-1.6,5.2-3.1c1-1.5,1.6-3.8,1.6-6.8v-23.3c0-6,1.1-10.3,3.3-13c2.2-2.7,5.8-4,10.7-4l4,0.1l3,0.1V175.6z"/>
	<path class="st1" d="M272.8,265.6l1.5,0.1c3.1,0,5.1-0.6,6.1-1.8c1-1.2,1.5-3.7,1.5-7.7v-20.9c0-3.7,0.5-6.8,1.5-9.1
		c1-2,2.9-3.9,5.8-5.6c-4.9-2.9-7.3-6.8-7.3-11.5v-23.8c0-4-0.5-6.7-1.5-7.8c-1-1.3-3-1.9-6.1-1.9l-1.5,0.1V165h3l3.7-0.2
		c5.1,0,8.8,1.4,11,4.1c2.3,2.8,3.4,7.3,3.4,13.6v25.8c0,1.8,0.6,3.4,1.8,4.8c1.2,1.4,2.9,2.4,5,2.8v10c-2.4,0.6-4.2,1.7-5.2,3.2
		c-1,1.5-1.6,3.8-1.6,6.8v23.3c0,6-1.1,10.3-3.3,13c-2.2,2.7-5.8,4-10.7,4l-4-0.2h-3V265.6z"/>
	<path class="st1" d="M314.8,248.1c0-2,0.7-3.6,2.1-5.1c1.4-1.4,3.1-2.1,5.1-2.1c2,0,3.7,0.7,5.1,2.1c1.4,1.4,2.1,3.1,2.1,5.1
		c0,2-0.7,3.7-2.1,5.2c-1.4,1.4-3.1,2.1-5.1,2.1c-2.1,0-3.8-0.7-5.2-2.1C315.5,252,314.8,250.2,314.8,248.1z"/>
</g>
</svg>
